<svg xmlns="http://www.w3.org/2000/svg" xmlns:xlink="http://www.w3.org/1999/xlink" width="135" height="135" viewBox="0 0 135 135">
  <defs>
    <filter id="Trazado_899731" x="0" y="0" width="135" height="135" filterUnits="userSpaceOnUse">
      <feOffset dx="12" dy="24" input="SourceAlpha"/>
      <feGaussianBlur stdDeviation="8" result="blur"/>
      <feFlood flood-opacity="0.204"/>
      <feComposite operator="in" in2="blur"/>
      <feComposite in="SourceGraphic"/>
    </filter>
  </defs>
  <g id="Grupo_1110234" data-name="Grupo 1110234" transform="translate(-209.051 -1457)">
    <g id="Grupo_1109915" data-name="Grupo 1109915" transform="translate(-671.959 1065.323)">
      <g transform="matrix(1, 0, 0, 1, 881.01, 391.68)" filter="url(#Trazado_899731)">
        <g id="Trazado_899731-2" data-name="Trazado 899731" transform="translate(12)" fill="#efd42f">
          <path d="M 43.5 85.5 C 37.82937622070312 85.5 32.32916259765625 84.38973999023438 27.15216255187988 82.20005035400391 C 22.1510124206543 80.08473968505859 17.65920066833496 77.05617523193359 13.80151271820068 73.198486328125 C 9.943824768066406 69.34079742431641 6.915262699127197 64.84898376464844 4.799950122833252 59.84783935546875 C 2.610262393951416 54.67083740234375 1.5 49.17062377929688 1.5 43.5 C 1.5 37.82937622070312 2.610262393951416 32.32916259765625 4.799950122833252 27.15216255187988 C 6.915262699127197 22.1510124206543 9.943824768066406 17.65920066833496 13.80151271820068 13.80151271820068 C 17.65920066833496 9.943824768066406 22.1510124206543 6.915262699127197 27.15216255187988 4.799950122833252 C 32.32916259765625 2.610262393951416 37.82937622070312 1.5 43.5 1.5 C 49.17062377929688 1.5 54.67083740234375 2.610262393951416 59.84783935546875 4.799950122833252 C 64.84898376464844 6.915262699127197 69.34079742431641 9.943824768066406 73.198486328125 13.80151271820068 C 77.05617523193359 17.65920066833496 80.08473968505859 22.1510124206543 82.20005035400391 27.15216255187988 C 84.38973999023438 32.32916259765625 85.5 37.82937622070312 85.5 43.5 C 85.5 49.17062377929688 84.38973999023438 54.67083740234375 82.20005035400391 59.84783935546875 C 80.08473968505859 64.84898376464844 77.05617523193359 69.34079742431641 73.198486328125 73.198486328125 C 69.34079742431641 77.05617523193359 64.84898376464844 80.08473968505859 59.84783935546875 82.20005035400391 C 54.67083740234375 84.38973999023438 49.17062377929688 85.5 43.5 85.5 Z" stroke="none"/>
          <path d="M 43.5 3 C 38.03121566772461 3 32.72760009765625 4.070396423339844 27.73649978637695 6.18145751953125 C 22.91414642333984 8.221145629882812 18.58260345458984 11.14175415039062 14.86217498779297 14.86217498779297 C 11.14175415039062 18.58260345458984 8.221145629882812 22.91414642333984 6.18145751953125 27.73649978637695 C 4.070396423339844 32.72760009765625 3 38.03121566772461 3 43.5 C 3 48.96878433227539 4.070396423339844 54.27239990234375 6.18145751953125 59.26350021362305 C 8.221145629882812 64.08586120605469 11.14175415039062 68.41740417480469 14.86217498779297 72.13783264160156 C 18.58260345458984 75.85824584960938 22.91414642333984 78.77885437011719 27.73649978637695 80.81854248046875 C 32.72760009765625 82.92959594726562 38.03121566772461 84 43.5 84 C 48.96878433227539 84 54.27239990234375 82.92959594726562 59.26350021362305 80.81854248046875 C 64.08586120605469 78.77885437011719 68.41740417480469 75.85824584960938 72.13783264160156 72.13783264160156 C 75.85824584960938 68.41740417480469 78.77885437011719 64.08586120605469 80.81854248046875 59.26350021362305 C 82.92959594726562 54.27239990234375 84 48.96878433227539 84 43.5 C 84 38.03121566772461 82.92959594726562 32.72760009765625 80.81854248046875 27.73649978637695 C 78.77885437011719 22.91414642333984 75.85824584960938 18.58260345458984 72.13783264160156 14.86217498779297 C 68.41740417480469 11.14175415039062 64.08586120605469 8.221145629882812 59.26350021362305 6.18145751953125 C 54.27239990234375 4.070396423339844 48.96878433227539 3 43.5 3 M 43.5 0 C 67.52438354492188 0 87 19.47561645507812 87 43.5 C 87 67.52438354492188 67.52438354492188 87 43.5 87 C 19.47561645507812 87 0 67.52438354492188 0 43.5 C 0 19.47561645507812 19.47561645507812 0 43.5 0 Z" stroke="none" fill="#fff"/>
        </g>
      </g>
    </g>
    <g id="Page-1" transform="translate(239.051 1475)">
      <g id="_006---RC-Car-topless" data-name="006---RC-Car-topless">
        <path id="Shape" d="M32.444,16,38.3,21.858a3.432,3.432,0,0,1,1.006,2.427V47.574a3.414,3.414,0,0,1-1.795,3.018,20.149,20.149,0,0,1-18.718,0A3.414,3.414,0,0,1,17,47.574V24.286a3.432,3.432,0,0,1,1.006-2.427L23.864,16Z" transform="translate(-2.414 -2.272)" fill="#02a9f4"/>
        <path id="Shape-2" data-name="Shape" d="M39.935,21.858,34.077,16H31.5l5.858,5.858a3.432,3.432,0,0,1,1.006,2.427V47.574a3.414,3.414,0,0,1-1.795,3.018A19.935,19.935,0,0,1,28.5,52.849c.42.027.845.049,1.287.049a19.954,19.954,0,0,0,9.359-2.305,3.414,3.414,0,0,0,1.795-3.018V24.286A3.432,3.432,0,0,0,39.935,21.858Z" transform="translate(-4.047 -2.272)" fill="#0377bc"/>
        <rect id="Rectangle-path" width="10.296" height="17.16" rx="4" transform="translate(0.858 3.432)" fill="#607d8b"/>
        <path id="Shape-3" data-name="Shape" d="M8.574,4H6A3.432,3.432,0,0,1,9.432,7.432v10.3A3.432,3.432,0,0,1,6,21.16H8.574a3.432,3.432,0,0,0,3.432-3.432V7.432A3.432,3.432,0,0,0,8.574,4Z" transform="translate(-0.852 -0.568)" fill="#37474f"/>
        <path id="Shape-4" data-name="Shape" d="M13,18.3a3.432,3.432,0,0,0,3.432-3.432V11.432A3.432,3.432,0,0,0,13,8Z" transform="translate(-1.846 -1.136)" fill="#9e9e9e"/>
        <rect id="Rectangle-path-2" data-name="Rectangle-path" width="10.296" height="17.16" rx="4" transform="translate(50.622 20.592) rotate(180)" fill="#607d8b"/>
        <path id="Shape-5" data-name="Shape" d="M54.574,4H52a3.432,3.432,0,0,1,3.432,3.432v10.3A3.432,3.432,0,0,1,52,21.16h2.574a3.432,3.432,0,0,0,3.432-3.432V7.432A3.432,3.432,0,0,0,54.574,4Z" transform="translate(-7.384 -0.568)" fill="#37474f"/>
        <path id="Shape-6" data-name="Shape" d="M46.432,18.3A3.432,3.432,0,0,1,43,14.864V11.432A3.432,3.432,0,0,1,46.432,8Z" transform="translate(-6.106 -1.136)" fill="#9e9e9e"/>
        <rect id="Rectangle-path-3" data-name="Rectangle-path" width="10.296" height="17.16" rx="4" transform="translate(0.858 33.462)" fill="#607d8b"/>
        <path id="Shape-7" data-name="Shape" d="M8.574,39H6a3.432,3.432,0,0,1,3.432,3.432v10.3A3.432,3.432,0,0,1,6,56.16H8.574a3.432,3.432,0,0,0,3.432-3.432v-10.3A3.432,3.432,0,0,0,8.574,39Z" transform="translate(-0.852 -5.538)" fill="#37474f"/>
        <rect id="Rectangle-path-4" data-name="Rectangle-path" width="10.296" height="17.16" rx="4" transform="translate(50.622 50.622) rotate(180)" fill="#607d8b"/>
        <path id="Shape-8" data-name="Shape" d="M54.574,39H52a3.432,3.432,0,0,1,3.432,3.432v10.3A3.432,3.432,0,0,1,52,56.16h2.574a3.432,3.432,0,0,0,3.432-3.432v-10.3A3.432,3.432,0,0,0,54.574,39Z" transform="translate(-7.384 -5.538)" fill="#37474f"/>
        <path id="Rectangle-path-5" data-name="Rectangle-path" d="M17,12h6.864v3.432H17Z" transform="translate(-2.414 -1.704)" fill="#7f8e94"/>
        <path id="Rectangle-path-6" data-name="Rectangle-path" d="M35,12h6.864v3.432H35Z" transform="translate(-4.97 -1.704)" fill="#7f8e94"/>
        <path id="Rectangle-path-7" data-name="Rectangle-path" d="M40,12h2.574v3.432H40Z" transform="translate(-5.68 -1.704)" fill="#545c60"/>
        <path id="Shape-9" data-name="Shape" d="M43,47h3.432v3.432H43" transform="translate(-6.106 -6.674)" fill="#7f8e94"/>
        <path id="Shape-10" data-name="Shape" d="M16.432,50.432H13V47h3.432" transform="translate(-1.846 -6.674)" fill="#7f8e94"/>
        <path id="Shape-11" data-name="Shape" d="M26.716,6h5.148A1.716,1.716,0,0,1,33.58,7.716V14.58H25V7.716A1.716,1.716,0,0,1,26.716,6Z" transform="translate(-3.55 -0.852)" fill="#3f51b5"/>
        <path id="Shape-12" data-name="Shape" d="M32.574,6H30a1.716,1.716,0,0,1,1.716,1.716V14.58H34.29V7.716A1.716,1.716,0,0,0,32.574,6Z" transform="translate(-4.26 -0.852)" fill="#283593"/>
        <path id="Shape-13" data-name="Shape" d="M35.432,46.716v3.432a1.721,1.721,0,0,1-1.716,1.716H32V45h1.716A1.721,1.721,0,0,1,35.432,46.716Z" transform="translate(-4.544 -6.39)" fill="#707070"/>
        <path id="Shape-14" data-name="Shape" d="M30.864,45v6.864H25.716A1.721,1.721,0,0,1,24,50.148V46.716A1.721,1.721,0,0,1,25.716,45Z" transform="translate(-3.408 -6.39)" fill="#9e9e9e"/>
        <path id="Shape-15" data-name="Shape" d="M22.716,47h.858v3.432h-.858a1.716,1.716,0,0,1,0-3.432Z" transform="translate(-2.982 -6.674)" fill="#607d8b"/>
        <path id="Rectangle-path-8" data-name="Rectangle-path" d="M28,16h3.432v7.722H28Z" transform="translate(-3.976 -2.272)" fill="#7f8e94"/>
        <rect id="Rectangle-path-9" data-name="Rectangle-path" width="8.58" height="11.154" rx="2" transform="translate(21.45 21.45)" fill="#9e9e9e"/>
        <path id="Shape-16" data-name="Shape" d="M32.574,25H30a1.716,1.716,0,0,1,1.716,1.716v7.722A1.716,1.716,0,0,1,30,36.154h2.574a1.716,1.716,0,0,0,1.716-1.716V26.716A1.716,1.716,0,0,0,32.574,25Z" transform="translate(-4.26 -3.55)" fill="#707070"/>
        <path id="Shape-17" data-name="Shape" d="M32.864,44.006V41.432a.858.858,0,0,0-.858-.858.858.858,0,0,1-.858-.858V38H27.716v1.716a.858.858,0,0,1-.858.858.858.858,0,0,0-.858.858v2.574Z" transform="translate(-3.692 -5.396)" fill="#7f8e94"/>
        <g id="Grupo_1110071" data-name="Grupo 1110071">
          <path id="Shape-18" data-name="Shape" d="M8.29,7H4.858a.858.858,0,0,0,0,1.716H8.29A.858.858,0,0,0,8.29,7Z" transform="translate(-0.568 -0.994)"/>
          <path id="Shape-19" data-name="Shape" d="M8.29,11H4.858a.858.858,0,0,0,0,1.716H8.29A.858.858,0,0,0,8.29,11Z" transform="translate(-0.568 -1.562)"/>
          <path id="Shape-20" data-name="Shape" d="M8.29,15H4.858a.858.858,0,1,0,0,1.716H8.29A.858.858,0,0,0,8.29,15Z" transform="translate(-0.568 -2.13)"/>
          <path id="Shape-21" data-name="Shape" d="M8.29,19H4.858a.858.858,0,0,0,0,1.716H8.29A.858.858,0,0,0,8.29,19Z" transform="translate(-0.568 -2.698)"/>
          <path id="Shape-22" data-name="Shape" d="M47.19,2.574H43.758a4.29,4.29,0,0,0-4.211,3.511,4.3,4.3,0,0,0-3.425,3.353H30.888V6.864a2.574,2.574,0,0,0-1.716-2.416v-2.4a9.771,9.771,0,0,1,4.547,1.992.858.858,0,0,0,1.21-1.217C34.81,2.71,32.029,0,25.74,0s-9.071,2.71-9.187,2.825A.858.858,0,0,0,17.76,4.043,9.773,9.773,0,0,1,22.308,2.05v2.4a2.574,2.574,0,0,0-1.716,2.412V9.438H15.358a4.3,4.3,0,0,0-3.424-3.353A4.29,4.29,0,0,0,7.722,2.574H4.29A4.3,4.3,0,0,0,0,6.864v10.3a4.3,4.3,0,0,0,4.29,4.29H7.722a4.29,4.29,0,0,0,4.211-3.511,4.3,4.3,0,0,0,3.425-3.353h4.021L14.986,18.98a4.263,4.263,0,0,0-1.258,3.033V39.468H12.012V36.894a4.3,4.3,0,0,0-4.29-4.29H4.29A4.3,4.3,0,0,0,0,36.894v10.3a4.3,4.3,0,0,0,4.29,4.29H7.722a4.3,4.3,0,0,0,4.29-4.29V44.616h1.716V45.3a4.265,4.265,0,0,0,2.248,3.775,21.01,21.01,0,0,0,19.528,0A4.265,4.265,0,0,0,37.752,45.3v-.686h1.716V47.19a4.3,4.3,0,0,0,4.29,4.29H47.19a4.3,4.3,0,0,0,4.29-4.29v-10.3a4.3,4.3,0,0,0-4.29-4.29H43.758a4.3,4.3,0,0,0-4.29,4.29v2.574H37.752V22.013a4.263,4.263,0,0,0-1.257-3.033L32.1,14.586h4.021a4.3,4.3,0,0,0,3.424,3.353,4.29,4.29,0,0,0,4.212,3.511H47.19a4.3,4.3,0,0,0,4.29-4.29V6.864A4.3,4.3,0,0,0,47.19,2.574ZM10.3,17.16a2.574,2.574,0,0,1-2.574,2.574H4.29A2.574,2.574,0,0,1,1.716,17.16V6.864A2.574,2.574,0,0,1,4.29,4.29H7.722A2.574,2.574,0,0,1,10.3,6.864Zm25.74-6.006V12.87H30.888V11.154ZM25.74,1.716a17.044,17.044,0,0,1,1.716.086V4.29H24.024V1.8a17.044,17.044,0,0,1,1.716-.086ZM22.308,6.864a.858.858,0,0,1,.858-.858h5.148a.858.858,0,0,1,.858.858V12.87H22.308Zm6.006,29.172v1.716H23.166V36.036a1.716,1.716,0,0,0,1.716-1.716v-.858H26.6v.858A1.716,1.716,0,0,0,28.314,36.036Zm-6.864,4.29a.858.858,0,0,1,.858-.858H26.6v5.148h-4.29a.858.858,0,0,1-.858-.858Zm6.864-.858h.858a.858.858,0,0,1,.858.858v3.432a.858.858,0,0,1-.858.858h-.858Zm-5.148-7.722a.858.858,0,0,1-.858-.858V23.166a.858.858,0,0,1,.858-.858h5.148a.858.858,0,0,1,.858.858v7.722a.858.858,0,0,1-.858.858ZM26.6,20.592H24.882V14.586H26.6ZM12.012,16.144V7.88A2.574,2.574,0,0,1,13.728,10.3v3.432A2.574,2.574,0,0,1,12.012,16.144Zm3.432-4.99h5.148V12.87H15.444Zm.754,9.04L21.8,14.586h1.361v6.006a2.574,2.574,0,0,0-2.574,2.574v7.722a2.574,2.574,0,0,0,2.574,2.574v.858a1.716,1.716,0,0,0-1.716,1.716v1.874a2.574,2.574,0,0,0-1.558,1.558h-.158a2.574,2.574,0,0,0-2.416,1.716H15.444V22.013A2.589,2.589,0,0,1,16.2,20.194Zm2.678,21.848a.858.858,0,0,1,.858-.858V42.9A.858.858,0,0,1,18.876,42.042ZM10.3,47.19a2.574,2.574,0,0,1-2.574,2.574H4.29A2.574,2.574,0,0,1,1.716,47.19v-10.3A2.574,2.574,0,0,1,4.29,34.32H7.722A2.574,2.574,0,0,1,10.3,36.894Zm1.716-4.29V41.184h1.716V42.9Zm22.683,4.66a19.293,19.293,0,0,1-17.91,0A2.553,2.553,0,0,1,15.444,45.3V42.9h1.874a2.574,2.574,0,0,0,2.416,1.716h.158a2.574,2.574,0,0,0,2.416,1.716h6.864a2.574,2.574,0,0,0,2.574-2.574V42.9h1.716a.858.858,0,1,0,1.716,0h.858v2.4A2.553,2.553,0,0,1,34.695,47.559Zm6.489-10.666a2.574,2.574,0,0,1,2.574-2.574H47.19a2.574,2.574,0,0,1,2.574,2.574v10.3a2.574,2.574,0,0,1-2.574,2.574H43.758a2.574,2.574,0,0,1-2.574-2.574Zm-1.716,4.29V42.9H37.752V41.184Zm-3.432-19.17v19.17h-.858a.858.858,0,1,0-1.716,0H31.746v-.858a2.574,2.574,0,0,0-1.716-2.416V36.036a1.716,1.716,0,0,0-1.716-1.716v-.858a2.574,2.574,0,0,0,2.574-2.574V23.166a2.574,2.574,0,0,0-2.574-2.574V14.586h1.361l5.607,5.608A2.589,2.589,0,0,1,36.036,22.013Zm1.716-8.286V10.3A2.574,2.574,0,0,1,39.468,7.88v8.264A2.574,2.574,0,0,1,37.752,13.728ZM49.764,17.16a2.574,2.574,0,0,1-2.574,2.574H43.758a2.574,2.574,0,0,1-2.574-2.574V6.864A2.574,2.574,0,0,1,43.758,4.29H47.19a2.574,2.574,0,0,1,2.574,2.574Z"/>
          <path id="Shape-23" data-name="Shape" d="M54.29,7H50.858a.858.858,0,1,0,0,1.716H54.29A.858.858,0,0,0,54.29,7Z" transform="translate(-7.1 -0.994)"/>
          <path id="Shape-24" data-name="Shape" d="M54.29,11H50.858a.858.858,0,1,0,0,1.716H54.29a.858.858,0,0,0,0-1.716Z" transform="translate(-7.1 -1.562)"/>
          <path id="Shape-25" data-name="Shape" d="M54.29,15H50.858a.858.858,0,1,0,0,1.716H54.29a.858.858,0,0,0,0-1.716Z" transform="translate(-7.1 -2.13)"/>
          <path id="Shape-26" data-name="Shape" d="M54.29,19H50.858a.858.858,0,1,0,0,1.716H54.29a.858.858,0,0,0,0-1.716Z" transform="translate(-7.1 -2.698)"/>
          <path id="Shape-27" data-name="Shape" d="M8.29,42H4.858a.858.858,0,1,0,0,1.716H8.29A.858.858,0,1,0,8.29,42Z" transform="translate(-0.568 -5.964)"/>
          <path id="Shape-28" data-name="Shape" d="M8.29,46H4.858a.858.858,0,0,0,0,1.716H8.29A.858.858,0,0,0,8.29,46Z" transform="translate(-0.568 -6.532)"/>
          <path id="Shape-29" data-name="Shape" d="M8.29,50H4.858a.858.858,0,0,0,0,1.716H8.29A.858.858,0,0,0,8.29,50Z" transform="translate(-0.568 -7.1)"/>
          <path id="Shape-30" data-name="Shape" d="M8.29,54H4.858a.858.858,0,1,0,0,1.716H8.29A.858.858,0,1,0,8.29,54Z" transform="translate(-0.568 -7.668)"/>
          <path id="Shape-31" data-name="Shape" d="M50.858,43.716H54.29a.858.858,0,0,0,0-1.716H50.858a.858.858,0,1,0,0,1.716Z" transform="translate(-7.1 -5.964)"/>
          <path id="Shape-32" data-name="Shape" d="M50.858,47.716H54.29a.858.858,0,0,0,0-1.716H50.858a.858.858,0,1,0,0,1.716Z" transform="translate(-7.1 -6.532)"/>
          <path id="Shape-33" data-name="Shape" d="M50.858,51.716H54.29a.858.858,0,0,0,0-1.716H50.858a.858.858,0,1,0,0,1.716Z" transform="translate(-7.1 -7.1)"/>
          <path id="Shape-34" data-name="Shape" d="M50.858,55.716H54.29a.858.858,0,0,0,0-1.716H50.858a.858.858,0,1,0,0,1.716Z" transform="translate(-7.1 -7.668)"/>
          <path id="Shape-35" data-name="Shape" d="M20.858,36.154a.858.858,0,0,0,.858-.858V25.858a.858.858,0,1,0-1.716,0V35.3A.858.858,0,0,0,20.858,36.154Z" transform="translate(-2.84 -3.55)"/>
          <path id="Shape-36" data-name="Shape" d="M38.858,36.154a.858.858,0,0,0,.858-.858V25.858a.858.858,0,1,0-1.716,0V35.3A.858.858,0,0,0,38.858,36.154Z" transform="translate(-5.396 -3.55)"/>
        </g>
      </g>
    </g>
  </g>
</svg>
