<svg xmlns="http://www.w3.org/2000/svg" width="87" height="87" viewBox="0 0 87 87">
  <g id="Grupo_1110234" data-name="Grupo 1110234" transform="translate(-221.051 -1457)">
    <g id="Grupo_1109915" data-name="Grupo 1109915" transform="translate(-671.959 1065.323)">
      <g id="Trazado_899731" data-name="Trazado 899731" transform="translate(893.01 391.677)" fill="#efd42f">
        <path d="M 43.5 85.5 C 37.82937622070312 85.5 32.32916259765625 84.38973999023438 27.15216255187988 82.20005035400391 C 22.1510124206543 80.08473968505859 17.65920066833496 77.05617523193359 13.80151271820068 73.198486328125 C 9.943824768066406 69.34079742431641 6.915262699127197 64.84898376464844 4.799950122833252 59.84783935546875 C 2.610262393951416 54.67083740234375 1.5 49.17062377929688 1.5 43.5 C 1.5 37.82937622070312 2.610262393951416 32.32916259765625 4.799950122833252 27.15216255187988 C 6.915262699127197 22.1510124206543 9.943824768066406 17.65920066833496 13.80151271820068 13.80151271820068 C 17.65920066833496 9.943824768066406 22.1510124206543 6.915262699127197 27.15216255187988 4.799950122833252 C 32.32916259765625 2.610262393951416 37.82937622070312 1.5 43.5 1.5 C 49.17062377929688 1.5 54.67083740234375 2.610262393951416 59.84783935546875 4.799950122833252 C 64.84898376464844 6.915262699127197 69.34079742431641 9.943824768066406 73.198486328125 13.80151271820068 C 77.05617523193359 17.65920066833496 80.08473968505859 22.1510124206543 82.20005035400391 27.15216255187988 C 84.38973999023438 32.32916259765625 85.5 37.82937622070312 85.5 43.5 C 85.5 49.17062377929688 84.38973999023438 54.67083740234375 82.20005035400391 59.84783935546875 C 80.08473968505859 64.84898376464844 77.05617523193359 69.34079742431641 73.198486328125 73.198486328125 C 69.34079742431641 77.05617523193359 64.84898376464844 80.08473968505859 59.84783935546875 82.20005035400391 C 54.67083740234375 84.38973999023438 49.17062377929688 85.5 43.5 85.5 Z" stroke="none"/>
        <path d="M 43.5 3 C 38.03121566772461 3 32.72760009765625 4.070396423339844 27.73649978637695 6.18145751953125 C 22.91414642333984 8.221145629882812 18.58260345458984 11.14175415039062 14.86217498779297 14.86217498779297 C 11.14175415039062 18.58260345458984 8.221145629882812 22.91414642333984 6.18145751953125 27.73649978637695 C 4.070396423339844 32.72760009765625 3 38.03121566772461 3 43.5 C 3 48.96878433227539 4.070396423339844 54.27239990234375 6.18145751953125 59.26350021362305 C 8.221145629882812 64.08586120605469 11.14175415039062 68.41740417480469 14.86217498779297 72.13783264160156 C 18.58260345458984 75.85824584960938 22.91414642333984 78.77885437011719 27.73649978637695 80.81854248046875 C 32.72760009765625 82.92959594726562 38.03121566772461 84 43.5 84 C 48.96878433227539 84 54.27239990234375 82.92959594726562 59.26350021362305 80.81854248046875 C 64.08586120605469 78.77885437011719 68.41740417480469 75.85824584960938 72.13783264160156 72.13783264160156 C 75.85824584960938 68.41740417480469 78.77885437011719 64.08586120605469 80.81854248046875 59.26350021362305 C 82.92959594726562 54.27239990234375 84 48.96878433227539 84 43.5 C 84 38.03121566772461 82.92959594726562 32.72760009765625 80.81854248046875 27.73649978637695 C 78.77885437011719 22.91414642333984 75.85824584960938 18.58260345458984 72.13783264160156 14.86217498779297 C 68.41740417480469 11.14175415039062 64.08586120605469 8.221145629882812 59.26350021362305 6.18145751953125 C 54.27239990234375 4.070396423339844 48.96878433227539 3 43.5 3 M 43.5 0 C 67.52438354492188 0 87 19.47561645507812 87 43.5 C 87 67.52438354492188 67.52438354492188 87 43.5 87 C 19.47561645507812 87 0 67.52438354492188 0 43.5 C 0 19.47561645507812 19.47561645507812 0 43.5 0 Z" stroke="none" fill="#fff"/>
      </g>
    </g>
    <g id="Grupo_1110716" data-name="Grupo 1110716" transform="translate(236.564 1472.52)">
      <path id="Trazado_901293" data-name="Trazado 901293" d="M26.942,337.531,15.671,326.26h0l-2.317-2.317a1.612,1.612,0,0,0-2.279,0L8.1,326.919a1.611,1.611,0,0,0,0,2.279h0L19.37,340.468h0l2.317,2.317h0a1.611,1.611,0,0,0,2.279,0l2.975-2.975A1.611,1.611,0,0,0,26.942,337.531Zm-11.975-1.614a3.611,3.611,0,1,1,6.164-2.553A3.609,3.609,0,0,1,14.967,335.917Z" transform="translate(-6.788 -288.116)" fill="#a6a8b2"/>
      <path id="Trazado_901294" data-name="Trazado 901294" d="M24.317,355.27h0l-2.4-2.4h0l-2.046-2.046a3.61,3.61,0,0,1-5.09-5.09l-4.549-4.549h0a1.664,1.664,0,0,1-.489-1.19L8.1,341.633a1.611,1.611,0,0,0,0,2.279h0l11.271,11.271h0l2.317,2.317h0a1.611,1.611,0,0,0,2.279,0l1.759-1.759A1.666,1.666,0,0,1,24.317,355.27Z" transform="translate(-6.788 -302.831)" fill="#878993"/>
      <path id="Trazado_901295" data-name="Trazado 901295" d="M45.484,352.623a7.341,7.341,0,1,0-5.659,8.7A7.341,7.341,0,0,0,45.484,352.623Zm-6.467,4.895a3.447,3.447,0,1,1,2.657-4.087A3.447,3.447,0,0,1,39.017,357.518Z" transform="translate(-27.57 -308.898)" fill="#61626d"/>
      <path id="Trazado_901296" data-name="Trazado 901296" d="M33.413,357.16a7.347,7.347,0,0,1,9.967-8.315,7.341,7.341,0,1,0-7.863,12.1A7.307,7.307,0,0,1,33.413,357.16Z" transform="translate(-27.571 -308.899)" fill="#3f404c"/>
      <path id="Trazado_901297" data-name="Trazado 901297" d="M128.1,229.753l-13.033,13.033a7.337,7.337,0,0,1,5.254,5.254l13.033-13.033A8.736,8.736,0,0,0,128.1,229.753Z" transform="translate(-102.482 -204.641)" fill="#a5a6ad"/>
      <path id="Trazado_901298" data-name="Trazado 901298" d="M131.306,231.789a8.686,8.686,0,0,0-3.209-2.037l-13.033,13.033a7.3,7.3,0,0,1,3.338,1.909Z" transform="translate(-102.482 -204.64)" fill="#8a8c93"/>
      <path id="Trazado_901299" data-name="Trazado 901299" d="M280.726,44.729,275.2,50.258l15.478,15.478,5.529-5.529Z" transform="translate(-245.113 -39.84)" fill="#965326"/>
      <path id="Trazado_901300" data-name="Trazado 901300" d="M280.726,44.729,275.2,50.258l1.922,1.922,5.529-5.529Z" transform="translate(-245.113 -39.84)" fill="#7f441c"/>
      <path id="Trazado_901301" data-name="Trazado 901301" d="M331.426,93.6a17.911,17.911,0,0,0-5.3,5.753l9.912,9.912,5.529-5.529Z" transform="translate(-290.471 -83.371)" fill="#a86131"/>
      <path id="Trazado_901302" data-name="Trazado 901302" d="M183.8,106.28,168.323,90.8a1.611,1.611,0,0,0-2.279,0L155.6,101.247a1.611,1.611,0,0,0,0,2.279l2.1,2.1A8.735,8.735,0,0,1,168.973,116.9l2.1,2.1a1.612,1.612,0,0,0,2.279,0L183.8,108.559A1.612,1.612,0,0,0,183.8,106.28Z" transform="translate(-138.166 -80.457)" fill="#ff8c01"/>
      <path id="Trazado_901303" data-name="Trazado 901303" d="M157.347,103.164l10.67-10.67a1.643,1.643,0,0,1,1.569-.43L168.324,90.8a1.611,1.611,0,0,0-2.279,0L155.6,101.248a1.611,1.611,0,0,0,0,2.279l1.367,1.367A1.644,1.644,0,0,1,157.347,103.164Z" transform="translate(-138.167 -80.458)" fill="#f45c0f"/>
      <circle id="Elipse_11640" data-name="Elipse 11640" cx="2.932" cy="2.932" r="2.932" transform="translate(30.39 19.727)" fill="#ffbb71"/>
      <path id="Trazado_901304" data-name="Trazado 901304" d="M305.054,181.214a17.808,17.808,0,0,0-.739,5.086c0,.233.005.465.014.7a2.932,2.932,0,0,0,.725-5.782Z" transform="translate(-271.048 -161.407)" fill="#fccb9d"/>
      <path id="Trazado_901305" data-name="Trazado 901305" d="M340.4,23.456,324.921,7.977a1.612,1.612,0,0,0-2.279,0L321.25,9.37a1.611,1.611,0,0,0,0,2.279l15.478,15.478a1.611,1.611,0,0,0,2.279,0l1.393-1.393A1.612,1.612,0,0,0,340.4,23.456Z" transform="translate(-285.711 -6.685)" fill="#ff8c01"/>
      <path id="Trazado_901306" data-name="Trazado 901306" d="M323.161,11.356,324.7,9.819a1.775,1.775,0,0,1,1.575-.491l-1.351-1.351a1.612,1.612,0,0,0-2.279,0L321.251,9.37a1.611,1.611,0,0,0,0,2.279l1.461,1.461A1.778,1.778,0,0,1,323.161,11.356Z" transform="translate(-285.712 -6.685)" fill="#f45c0f"/>
      <path id="Trazado_901307" data-name="Trazado 901307" d="M271.438,174.068a3.752,3.752,0,1,0,5.306,0A3.755,3.755,0,0,0,271.438,174.068Zm2.653,4.765a2.112,2.112,0,1,1,1.494-3.606A2.115,2.115,0,0,1,274.091,178.833Z" transform="translate(-240.782 -154.062)"/>
      <path id="Trazado_901308" data-name="Trazado 901308" d="M55.255,16.191,43.4,4.341A.82.82,0,1,0,42.246,5.5L54.1,17.35a.793.793,0,0,1,0,1.119L52.7,19.863a.786.786,0,0,1-.56.232c-.468,0,.694,1.022-16.038-15.71h0a.791.791,0,0,1,0-1.12c2.242-2.242,1.659-2.246,4.255.35A.82.82,0,0,0,41.52,2.455L39.777.713a2.43,2.43,0,0,0-3.438,0L34.946,2.105a2.423,2.423,0,0,0-.478,2.757l-.715.715L33.6,5.429a.82.82,0,1,0-1.159,1.159l.148.148-.6.6-.148-.148a.82.82,0,0,0-1.159,1.159l.148.148-.794.794a2.423,2.423,0,0,0-2.757.478L16.841,20.211a2.43,2.43,0,0,0,0,3.438l2.1,2.1a.819.819,0,0,0,.872.186,7.912,7.912,0,0,1,4.2-.4l-11.7,11.7a8.275,8.275,0,0,0-3.185,0L7.132,35.247a2.43,2.43,0,0,0-3.438,0L.719,38.223a2.43,2.43,0,0,0,0,3.438l1.994,1.994a8.164,8.164,0,0,0,8.007,9.754,8.25,8.25,0,0,0,1.593-.155l1.994,1.994a2.431,2.431,0,0,0,3.438,0l2.975-2.975a2.431,2.431,0,0,0,0-3.438l-2-2a8.227,8.227,0,0,0,0-3.176L26.4,35.982a.82.82,0,0,0-1.159-1.159L18.162,41.9a8.2,8.2,0,0,0-4.093-4.1L25.8,26.075a7.875,7.875,0,0,1,4.095,4.095L27.18,32.882a.82.82,0,0,0,1.159,1.159l2.09-2.09a7.912,7.912,0,0,1-.4,4.2.82.82,0,0,0,.186.872l2.1,2.1a2.43,2.43,0,0,0,3.438,0l6.7-6.7A.82.82,0,0,0,41.3,31.264c-7.278,7.278-6.808,6.936-7.264,6.936a.786.786,0,0,1-.56-.232l-1.739-1.739a9.565,9.565,0,0,0-12-12c-1.884-1.884-1.971-1.875-1.971-2.3A.785.785,0,0,1,18,21.37L28.445,10.925a.791.791,0,0,1,1.119,0c16.708,16.708,15.71,15.569,15.71,16.038,0,.425-.07.4-2.061,2.389a.82.82,0,1,0,1.159,1.159L46.2,28.682a2.424,2.424,0,0,0,.478-2.757l.794-.794a.98.98,0,0,0,.744.4.821.821,0,0,0,.58-1.4l-.164-.164.6-.6a.981.981,0,0,0,.744.4.82.82,0,0,0,.58-1.4l-.164-.164L51.1,21.5a2.423,2.423,0,0,0,2.757-.478l1.393-1.393A2.434,2.434,0,0,0,55.255,16.191ZM1.646,39.942c0-.437-.021-.307,3.207-3.535a.787.787,0,0,1,.56-.232c.421,0,.454.126,1.957,1.629a8.206,8.206,0,0,0-4.1,4.1C1.779,40.4,1.646,40.366,1.646,39.942ZM4.2,45.248a6.527,6.527,0,0,1,8.122-6.325c.015,0,.029.011.044.014A6.521,6.521,0,1,1,4.2,45.248ZM18.162,48.6c1.5,1.5,1.631,1.535,1.631,1.959a.786.786,0,0,1-.232.56c-3.229,3.229-3.1,3.207-3.535,3.207a.786.786,0,0,1-.56-.232l-1.4-1.4A8.2,8.2,0,0,0,18.162,48.6ZM45.623,24.664,31.3,10.345,32,9.653,46.315,23.972Zm1.852-1.852L33.155,8.493l.6-.6L48.072,22.215ZM34.912,6.737l.613-.613L49.844,20.442l-.613.613Z" transform="translate(0 0)"/>
      <path id="Trazado_901309" data-name="Trazado 901309" d="M67.513,379.206a4.267,4.267,0,1,0-7.284,3.017A4.27,4.27,0,0,0,67.513,379.206Zm-6.124,1.857a2.627,2.627,0,1,1,4.485-1.858A2.625,2.625,0,0,1,61.389,381.064Z" transform="translate(-52.527 -333.958)"/>
      <path id="Trazado_901310" data-name="Trazado 901310" d="M166.79,260.278a.82.82,0,0,0-1.159,0l-8.784,8.784a.82.82,0,0,0,1.159,1.159l8.784-8.784A.82.82,0,0,0,166.79,260.278Z" transform="translate(-139.485 -231.616)"/>
    </g>
  </g>
</svg>
