<svg xmlns="http://www.w3.org/2000/svg" width="87" height="87" viewBox="0 0 87 87">
  <g id="Grupo_1110172" data-name="Grupo 1110172" transform="translate(-856.051 -947)">
    <g id="Grupo_1110021" data-name="Grupo 1110021" transform="translate(-36.959 555.323)">
      <g id="Rectángulo_401366" data-name="Rectángulo 401366" transform="translate(893.01 391.677)" fill="#efd42f" stroke="#fff" stroke-width="3">
        <rect width="87" height="87" rx="43.5" stroke="none"/>
        <rect x="1.5" y="1.5" width="84" height="84" rx="42" fill="none"/>
      </g>
    </g>
    <g id="Grupo_1110171" data-name="Grupo 1110171" transform="translate(871.738 960)">
      <path id="Trazado_900040" data-name="Trazado 900040" d="M63.458,30.51l-19.2-19.2L38.5,17.072l-3.839-1.92-2.88,2.88,1.92,3.839L21.224,34.349l-3.839-1.92-2.88,2.88,1.92,3.839-4.8,4.8L36.582,68.9l4.8-4.8,3.839,1.92,2.88-2.88-1.92-3.839L63.458,42.028Zm0,0" transform="translate(-9.955 -9.955)" fill="#f5e0cd"/>
      <path id="Trazado_900041" data-name="Trazado 900041" d="M167.782,211.313,147.625,231.47l8.639,8.639,20.157-20.157Zm0,0" transform="translate(-129.637 -185.959)" fill="#d3a06c"/>
      <path id="Trazado_900042" data-name="Trazado 900042" d="M66.023,138.349l14.4-14.4-8.639-8.639L51.625,135.47l8.639,8.639Zm0,0" transform="translate(-45.156 -101.477)" fill="#d3a06c"/>
      <path id="Trazado_900043" data-name="Trazado 900043" d="M263.782,66.67v8.639h-.96l-19.2-19.2,4.8-4.8Zm0,0" transform="translate(-214.119 -45.156)" fill="#fcd770"/>
      <g id="Grupo_1110170" data-name="Grupo 1110170" transform="translate(0.313)">
        <path id="Trazado_900044" data-name="Trazado 900044" d="M54.462,20.157,34.305,0,28.357,5.948l-3.839-1.92L20.659,7.887l1.92,3.839-11.5,11.5L7.24,21.306,3.381,25.165,5.3,29,.313,33.993,26.626,60.307l4.988-4.989,3.839,1.92,3.859-3.859-1.92-3.839,17.07-17.069ZM22.995,8.265l1.9-1.9,2.03,1.015L24.01,10.3ZM5.717,25.543l1.9-1.9,2.03,1.015L6.732,27.573ZM36.976,53l-1.9,1.9-2.03-1.014,2.916-2.916ZM52.543,31.676,26.626,57.592l-23.6-23.6L34.305,2.715,52.543,20.952Zm0,0" transform="translate(-0.313)" fill="#1e1713"/>
        <path id="Trazado_900045" data-name="Trazado 900045" d="M40.313,125.515l21.515,21.515,21.515-21.515L61.827,104ZM69.109,114l-1.522,1.522L60.3,108.237l1.522-1.522ZM58.947,132.631l7.281,7.281-1.522,1.522-7.281-7.281Zm1.357-1.357,1.522-1.522,7.281,7.281-1.522,1.522Zm2.88-2.88,1.522-1.522,7.281,7.281-1.522,1.522Zm2.88-2.88,1.522-1.522,7.281,7.281L73.345,132.8Zm2.88-2.88,1.522-1.522,7.281,7.281-1.522,1.522ZM53.188,135.676l-1.522-1.522,18.8-18.8,1.522,1.522ZM64.707,118.4l-7.281-7.281,1.522-1.522,7.281,7.282Zm-1.357,1.357-1.522,1.522L54.546,114l1.522-1.522Zm-2.88,2.88-1.522,1.522-7.281-7.281,1.522-1.522Zm-2.88,2.88-1.522,1.522-7.281-7.281,1.522-1.522Zm-2.88,2.88-1.522,1.522-7.281-7.281,1.522-1.522Zm-10.161-4.4,7.281,7.281L50.309,132.8l-7.281-7.281Zm10,13.041,1.522-1.522,7.281,7.281-1.522,1.522Zm24.559-10-7.281-7.281,1.522-1.522,7.282,7.281Zm0,0" transform="translate(-35.513 -91.522)" fill="#1e1713"/>
        <path id="Trazado_900046" data-name="Trazado 900046" d="M232.313,46.157,252.47,66.314h2.317v-10L238.469,40ZM252.867,64l-17.84-17.84,3.442-3.442,14.4,14.4Zm0,0" transform="translate(-204.476 -35.201)" fill="#1e1713"/>
      </g>
    </g>
  </g>
</svg>
